<svg fill="#FF3333" width="74" height="65" class="jss12" viewBox="0 0 64 56" xmlns="http://www.w3.org/2000/svg" xmlns:xlink="http://www.w3.org/1999/xlink"><path fill="#FF3333" d="M14.822 54.1a9.118 9.118 0 0 1-2.048.232c-.521 0-1.043-.039-1.564-.097l-.464-.058s.097.386.097.502c0 .116-.097.136-.174.174a2.562 2.562 0 0 1-.367.097 2.47 2.47 0 0 1-.753.038 4.824 4.824 0 0 1-1.468-.367h-.02c-.56-.231-1.1-.54-1.583-.927-1.584-1.197-1.236-24.76-.715-27.387.136-.676 3.709-.656 3.4.85-.31 1.507-.097 16.224-.097 16.224-.02-1.024.386-2.28.657-3.303.27-1.043.598-2.086 1.023-3.09.56-1.39 1.43-3.225 3.187-3.225.947 0 2.202.347 3.264 1.776 2.047 2.762 3.805 16.475-2.375 18.561zm-1.488-18.406a1.11 1.11 0 0 0-.425.367c-.772 1.178-.965 2.955-1.236 4.326a65.147 65.147 0 0 0-.753 4.732c-.174 1.39-.328 2.781-.463 4.172-.097.985-.58 2.607.173 3.438.194.212.483.309.754.309 1.429 0 2.298-1.41 2.82-2.55.772-1.641 1.158-3.38 1.294-5.176.135-1.777.154-3.553-.116-5.311-.174-1.14-.425-2.337-.85-3.419-.155-.463-.618-1.12-1.198-.888zM49.8 40.484c-.04-.29-1.932-3.612-6.239-7.648 1.178-2.57 2.376-4.77 3.225-5.95.31-.733-1.332-1.621-2.163-1.815-.231-.058-.444.078-.58.27-.926 1.237-1.97 3.149-2.993 5.293-.174-.155-.347-.29-.54-.444-3.593-2.84-5.293-1.855-6.973-.792-1.468.927-1.622 2.453-2.124 3.998-.136-2.183-.619-3.94-1.604-4.674a1.437 1.437 0 0 0-.463-.213c-1.43-.328-3.612.174-4.558.638-.232.116-.425.29-.56.502-.444.753-.464 1.893-.56 3.496-.85-.194-2.55-.039-2.646.328-.502 1.796-.599 3.708-.599 5.562 0 1.932.116 3.863.425 5.775.097.618.212 1.256.405 1.854.116.425.29.85.6 1.198.327.386.772.54 1.235.695.966.328 2.009.502 3.013.464.734-.02 1.487-.155 2.125-.522 1.294-.753 2.878-6.74 3.187-12.013 1.603-2.202 1.506-5.195 3.032-5.814 1.14-.463 3.11.947 5.176 3.09-2.105 4.926-3.786 9.986-3.477 10.662.541 1.197 3.052 2.376 3.149 1.39.212-2.375 1.352-5.91 2.723-9.347a51.127 51.127 0 0 1 3.94 5.543c.193.328.444.753.753.792.947.135 3.225-1.314 3.09-2.318zM27.55 29.533c2.51-.444 2.124 3.863 1.757 6.644a.713.713 0 0 1-.425.56c-1.062.425-1.564.27-1.873-2.8-.212-2.222-.174-4.269.54-4.404zM25.81 47.59c-.096 0-.193 0-.29-.038-.733-.27-.83-1.565-.965-2.202a27.567 27.567 0 0 1-.328-1.738c-.367-2.376-.502-4.829-.31-7.243 1.333 3.206 3.98 2.8 5.196 2.105-.077.039-.077.676-.096.773a71.09 71.09 0 0 0-.116.772c-.078.522-.193 1.043-.29 1.545a28.676 28.676 0 0 1-1.024 3.554c-.309.811-.579 2.047-1.467 2.434-.116 0-.213.02-.31.038zM52.773 28.065c.715.193 4.326-3.264 4.326-3.728 0-.907-1.197-2.375-1.545-1.776-.734 1.255-3.63 3.244-3.573 4.133.039.656.348 1.255.792 1.371zM51.962 35.057c.174.715 5.04 2.182 5.466 1.95.791-.424 1.506-2.124.83-2.22-2.376-.31-5.176-1.661-5.582-1.063-.463.657-.83.908-.714 1.333zM61.136 31.831c.56-.096.695-2.78-.251-2.588-.251.058-.734.097-1.371.155-3.342.174-5.119.038-5.795.54-.463.329-.502 1.913.058 1.97.406.02 6.548.059 7.359-.077zM.24 16.071c-.522.193-.155 2.859.734 2.492.231-.097.695-.232 1.313-.406 3.245-.792 5.022-1.004 5.582-1.603.386-.405.135-1.97-.425-1.912-.386.02-6.412 1.14-7.204 1.43zM63.01 5.217c-.387.173-4.713 9.734-5.196 9.58-.483-.155.773-10.314 1.062-11.26.29-.966-2.839-1.372-3.264-1.16-.058.039-.367.889-.869 3.767-.077.424-.174.85-.29 1.255-1.39 4.655-3.495 9.85-3.804 9.87-.889.019-.502-8.17.907-12.786.29-.966-2.8-1.41-2.974-1.005-.425.927-1.023 4.037-1.371 7.185a8.927 8.927 0 0 1-.464 2.009c-.772 2.24-2.433 6.953-3.148 7.146-1.294.386-.405-11.434-.096-12.496.154-.541-.696-.657-1.449-.638a1.733 1.733 0 0 0-.251-.54c-.386-.464-1.371-.87-3.38-.676-2.183.212-4.442 4.287-5.485 8.42a18.246 18.246 0 0 1-1.024 2.994c-.81 1.873-1.641 3.38-2.453 4.365-.328.406-1.004.154-.985-.367.097-2.781-.27-8.073 2.743-19.314C31.644.523 28.34-.346 27.684.137c-.424.309-.579 1.313-.733 1.777-.27.753-.503 1.526-.734 2.298-.445 1.507-2.453 8.112-2.82 9.638-.676 2.704-2.588 7.706-2.82 8.247-.27.656-1.99 5.485-3.129 5.137-1.159-.135-2.627-7.667 2.144-24.142.29-1.024-3.515-1.873-3.843-1.14-.638 1.449-5.177 24.104-1.604 27.06 1.662 1.37 4.076 1.08 4.752.675 2.993-1.7 5.968-14.118 5.968-14.118s-.638 4.809.27 6.74c.464.985 1.41 1.507 2.472 1.623 1.14.116 2.357.019 3.148-.85.83-.908 1.294-2.086 1.739-3.206.173.81.483 1.68 1.159 2.22 1.062.85 3.264 1.469 4.384.33.618-.638.907-1.469 1.159-2.28.309-1.004.54-2.028.695-3.07-.077 1.158.25 2.452 1.14 3.283.85.81 2.49 1.429 3.63.85.638-.31 1.005-1.024 1.294-1.642.425-.889.734-1.816 1.024-2.743.058.715.193 1.275.406 1.526.618.811 1.583 1.197 2.588 1.275 1.043.077 2.066.019 2.684-.908.367-.54.618-1.217.85-1.835.135-.348.27-.715.386-1.082.097-.29.329-.714.329-1.023.058.444.135.927.328 1.333.58 1.332 2.627 1.834 3.96 1.564.984-.193 1.564-1.313 2.008-2.105 1.255-2.28 2.086-4.81 2.8-7.282.116-.424.329-.927.329-1.37-.077-.522-.27-1.874-.637-1.7zM40.276 7.109a.577.577 0 0 1 .213.329c.115.405 0 .869-.078 1.255-.386 1.68-.676 3.341-.985 5.04a44.592 44.592 0 0 1-.946 3.844 23.563 23.563 0 0 1-.657 1.97c-.173.445-.386.927-.695 1.294-.097.116-.212.252-.348.31-.386.193-.714-.155-.907-.445-.329-.463-.445-1.043-.503-1.584-.077-.733-.038-1.487.04-2.24a22.281 22.281 0 0 1 1.274-5.195c.29-.811 1.873-4.423 2.916-4.674.213-.039.483-.039.676.096zM10.032 7.69c.193-.715-3.341-4.346-3.824-4.366-.908-.02-2.357 1.12-1.796 1.526C6.342 6.26 8.12 8.81 8.776 8.5c.696-.347 1.12-.386 1.256-.81zM1.784 8.713c-.56-.039-1.294 2.55-.328 2.588.251 0 .734.058 1.371.154 3.284.6 3.824 1.063 4.578.734.521-.212.907-1.738.386-1.931-.386-.135-5.176-1.507-6.007-1.545z"></path></svg>